# xmcd
#
# Track frame offsets:
#	150
#	16728
#	36245
#	52414
#	70452
#	90428
#	107132
#	126979
#	141240
#	159683
#	175596
#	191159
#	211332
#
# Disc length: 3180 seconds
#
# Revision: 1
# Processed by: cddbd v1.5.2PL0 Copyright (c) Steve Scherf et al.
# Submitted via: EasyCDDAExtractor 12.0.7.1
#
DISCID=bf0c6a0d
DTITLE=Каста - Ясно! [Влади]
DYEAR=2012
DGENRE=Rap
TTITLE0=Сочиняй мечты [уч. Уля Глушкова (Wow Band)]
TTITLE1=Прощание
TTITLE2=Пусть пригодится
TTITLE3=Все лучше тебя
TTITLE4=Не замечаем
TTITLE5=В студийной будке
TTITLE6=Тёплые впечатления
TTITLE7=Эпизод
TTITLE8=Страницы
TTITLE9=Вращайся, диск
TTITLE10=Тебе в прикол [Каста и Леонид Климин]
TTITLE11=Обо мне
TTITLE12=Слово о полку Игореве (1187-2012 гг.) [дополнительный трек]
EXTD=
EXTT0=
EXTT1=
EXTT2=
EXTT3=
EXTT4=
EXTT5=
EXTT6=
EXTT7=
EXTT8=
EXTT9=
EXTT10=
EXTT11=
EXTT12=
PLAYORDER=
